<svg width="30" height="30" viewBox="0 0 24 24" fill="none" xmlns="http://www.w3.org/2000/svg">
<path d="M12 24C18.6274 24 24 18.6274 24 12C24 5.37258 18.6274 0 12 0C5.37258 0 0 5.37258 0 12C0 18.6274 5.37258 24 12 24Z" fill="#0971BD"/>
<path fill-rule="evenodd" clip-rule="evenodd" d="M6.40002 8.58788C6.40002 8.58788 11.2298 11.3267 12.1672 11.3267C13.1498 11.3267 17.9272 8.6402 17.9272 8.6402L17.9349 8.1602C17.9349 7.63028 17.5048 7.2002 16.9735 7.2002H7.36098C6.8301 7.2002 6.40002 7.63028 6.40002 8.1602V8.58788ZM17.9272 10.0803C17.9272 10.0803 13.1949 12.6468 12.1672 12.6468C11.2298 12.6468 6.40722 10.0803 6.4077 10.0803L6.40002 15.8403C6.40002 16.3702 6.83058 16.8003 7.36098 16.8003H16.9735C17.5048 16.8003 17.9349 16.3702 17.9349 15.8403L17.9272 10.0803Z" fill="white"/>
</svg>
