<svg width="30" height="30" viewBox="0 0 24 24" fill="none" xmlns="http://www.w3.org/2000/svg">
<path d="M12 24C18.6274 24 24 18.6274 24 12C24 5.37258 18.6274 0 12 0C5.37258 0 0 5.37258 0 12C0 18.6274 5.37258 24 12 24Z" fill="white"/>
<path fill-rule="evenodd" clip-rule="evenodd" d="M18.4 14.9095C18.4 14.3523 18.2675 13.8263 18.032 13.3589C18.1245 12.9419 18.1727 12.5102 18.1727 12.0665C18.1727 8.74279 15.4401 6.04746 12.0677 6.04746C11.7125 6.04746 11.364 6.07788 11.0239 6.13575C10.4782 5.7967 9.83253 5.6001 9.1409 5.6001C7.18492 5.6001 5.59998 7.16254 5.59998 9.09148C5.59998 9.73545 5.77759 10.3379 6.08615 10.8572C6.00562 11.2474 5.96272 11.6525 5.96272 12.0665C5.96272 15.3917 8.69612 18.0863 12.0677 18.0863C12.45 18.0863 12.8233 18.0514 13.1861 17.9854C13.685 18.2495 14.254 18.4001 14.8598 18.4001C16.815 18.4001 18.4 16.8369 18.4 14.9095ZM15.6267 13.6007C15.6267 14.0963 15.4822 14.5481 15.1992 14.9435C14.917 15.3382 14.5001 15.6498 13.9582 15.8709C13.4231 16.0905 12.7819 16.2025 12.0511 16.2025C11.1744 16.2025 10.4391 16.0504 9.86487 15.75C9.45471 15.5319 9.1168 15.2366 8.86017 14.8701C8.60053 14.5021 8.46957 14.1363 8.46957 13.7825C8.46957 13.5629 8.55537 13.3714 8.72395 13.2149C8.89102 13.0591 9.10551 12.9812 9.36139 12.9812C9.57061 12.9812 9.75198 13.0428 9.89874 13.1652C10.0395 13.2832 10.1599 13.4575 10.257 13.6808C10.3653 13.9256 10.4827 14.1319 10.6069 14.2929C10.7273 14.4502 10.8997 14.5815 11.1194 14.6846C11.3407 14.787 11.6395 14.8404 12.006 14.8404C12.511 14.8404 12.9249 14.7336 13.2357 14.5244C13.5405 14.3203 13.688 14.074 13.688 13.7728C13.688 13.5361 13.6105 13.3492 13.4525 13.2023C13.2854 13.0495 13.0664 12.9308 12.8007 12.8477C12.523 12.7631 12.1467 12.6703 11.6809 12.5739C11.0464 12.4404 10.5083 12.2823 10.0809 12.1021C9.64286 11.9188 9.28989 11.6643 9.03176 11.3461C8.76986 11.0218 8.63665 10.616 8.63665 10.139C8.63665 9.68494 8.77588 9.27467 9.05132 8.92153C9.32376 8.57061 9.72263 8.29611 10.2366 8.10989C10.7431 7.92516 11.3452 7.83168 12.0278 7.83168C12.5727 7.83168 13.0521 7.894 13.4525 8.01715C13.8551 8.14031 14.1938 8.30649 14.4602 8.512C14.7288 8.71973 14.929 8.94008 15.054 9.17007C15.1804 9.40228 15.2451 9.63301 15.2451 9.85632C15.2451 10.0715 15.1608 10.2673 14.9945 10.4372C14.8274 10.6094 14.616 10.6962 14.3676 10.6962C14.1418 10.6962 13.9642 10.6413 13.8423 10.5344C13.7279 10.4343 13.609 10.2785 13.4773 10.0559C13.3253 9.771 13.1409 9.54621 12.9294 9.38744C12.7239 9.23313 12.3815 9.15597 11.9097 9.15597C11.4731 9.15597 11.1164 9.24203 10.8523 9.41341C10.5979 9.57737 10.4737 9.76655 10.4737 9.99061C10.4737 10.1271 10.5136 10.2421 10.5964 10.34C10.6822 10.4454 10.8049 10.5359 10.9599 10.6131C11.1202 10.6924 11.2858 10.7562 11.4513 10.8008C11.6207 10.8475 11.9051 10.9165 12.2957 11.0055C12.7902 11.1094 13.244 11.2274 13.6451 11.3542C14.0523 11.4818 14.403 11.6391 14.6905 11.8238C14.9825 12.0115 15.2135 12.2519 15.3783 12.5398C15.5431 12.8299 15.6267 13.186 15.6267 13.6007Z" fill="#00AEF3"/>
</svg>
