<svg width="30" height="30" viewBox="0 0 25 24" fill="none" xmlns="http://www.w3.org/2000/svg">
<path d="M0 12C0 5.37258 5.59644 0 12.5 0C19.4036 0 25 5.37258 25 12C25 18.6274 19.4036 24 12.5 24C5.59644 24 0 18.6274 0 12Z" fill="white"/>
<path d="M14.4774 6.39195C14.2747 5.79318 13.6049 5.46552 12.9813 5.66014C12.3576 5.85466 12.0163 6.4977 12.219 7.09636L15.2892 16.1646C15.5 16.724 16.1294 17.0383 16.7335 16.8714C17.3637 16.6972 17.7479 16.0547 17.5468 15.4605C17.5391 15.4379 14.4774 6.39195 14.4774 6.39195Z" fill="#DFA22F"/>
<path d="M9.72015 7.87578C9.51741 7.27712 8.84758 6.94946 8.22397 7.14398C7.60025 7.3385 7.25894 7.98154 7.46168 8.58031L10.5318 17.6486C10.7427 18.2079 11.3721 18.5222 11.9762 18.3552C12.6064 18.1811 12.9905 17.5386 12.7894 16.9444C12.7818 16.9218 9.72015 7.87578 9.72015 7.87578Z" fill="#3CB187"/>
<path d="M18.3418 13.9024C18.9655 13.7079 19.3067 13.0649 19.1041 12.4661C18.9015 11.8675 18.2317 11.5398 17.608 11.7343L8.16193 14.6818C7.57931 14.8841 7.25188 15.4883 7.42576 16.0683C7.60718 16.6732 8.27647 17.042 8.89537 16.849C8.91898 16.8416 18.3418 13.9024 18.3418 13.9024Z" fill="#CE1E5B"/>
<path d="M10.1306 16.4636C10.7455 16.2718 11.5379 16.0246 12.3883 15.7594C12.1885 15.1691 11.9311 14.4083 11.6547 13.5918L9.39685 14.2963L10.1306 16.4636Z" fill="#392538"/>
<path d="M14.8879 14.9797C15.7415 14.7135 16.5348 14.466 17.1456 14.2754C16.9459 13.6852 16.6883 12.9241 16.4119 12.1074L14.1541 12.8119L14.8879 14.9797Z" fill="#BB242A"/>
<path d="M16.7961 9.33555C17.4197 9.14103 17.761 8.49799 17.5584 7.89922C17.3558 7.30056 16.6859 6.9729 16.0622 7.16742L6.6161 10.1149C6.03347 10.3172 5.70604 10.9214 5.88003 11.5014C6.06134 12.1063 6.73063 12.4751 7.34965 12.2821C7.37314 12.2747 16.7961 9.33555 16.7961 9.33555Z" fill="#72C5CD"/>
<path d="M8.58447 11.8968C9.19933 11.705 9.99201 11.4577 10.8425 11.1925C10.5652 10.373 10.3074 9.61139 10.1089 9.0249L7.85059 9.72953L8.58447 11.8968Z" fill="#248C73"/>
<path d="M13.3417 10.413C14.1954 10.1467 14.9889 9.89919 15.5998 9.70855C15.3224 8.88893 15.0646 8.12712 14.866 7.54053L12.6078 8.24516L13.3417 10.413Z" fill="#62803A"/>
</svg>
